<svg width="378" height="86" viewBox="0 0 378 86" fill="none" xmlns="http://www.w3.org/2000/svg">
<path d="M13.8 68.8094H7.36L5.8 76.1294H0.84L7.36 48.2494C6.61333 47.4227 6.24 46.4494 6.24 45.3294C6.24 44.1561 6.65333 43.1561 7.48 42.3294C8.33333 41.4761 9.34667 41.0494 10.52 41.0494C11.6933 41.0494 12.6933 41.4761 13.52 42.3294C14.3733 43.1561 14.8 44.1561 14.8 45.3294C14.8 46.4494 14.4133 47.4227 13.64 48.2494L20.68 76.1294H15.44L13.8 68.8094ZM10.52 46.5294C10.8667 46.5294 11.1467 46.4227 11.36 46.2094C11.5733 45.9694 11.68 45.6761 11.68 45.3294C11.68 44.9827 11.5733 44.7027 11.36 44.4894C11.1467 44.2761 10.8667 44.1694 10.52 44.1694C10.1733 44.1694 9.88 44.2761 9.64 44.4894C9.42667 44.7027 9.32 44.9827 9.32 45.3294C9.32 45.6761 9.42667 45.9694 9.64 46.2094C9.88 46.4227 10.1733 46.5294 10.52 46.5294ZM8.4 64.1294H12.76L10.48 55.4894L8.4 64.1294ZM34.0138 63.5294C34.0138 62.4627 33.7071 61.6094 33.0938 60.9694C32.5071 60.3027 31.7071 59.9694 30.6938 59.9694C29.8671 59.9694 28.9738 60.2094 28.0138 60.6894V76.1294H23.6538V56.0894H27.5338L28.0538 56.3294C29.1738 55.9561 30.3338 55.7694 31.5338 55.7694C32.8671 55.7694 34.0271 56.0094 35.0138 56.4894C36.0804 56.9694 36.9071 57.6894 37.4938 58.6494C38.1071 59.6094 38.4138 60.8227 38.4138 62.2894V76.1294H34.0138V63.5294ZM54.0138 63.5294C54.0138 62.4627 53.7071 61.6094 53.0938 60.9694C52.5071 60.3027 51.7071 59.9694 50.6938 59.9694C49.8671 59.9694 48.9738 60.2094 48.0138 60.6894V76.1294H43.6538V56.0894H47.5338L48.0538 56.3294C49.1738 55.9561 50.3338 55.7694 51.5338 55.7694C52.8671 55.7694 54.0271 56.0094 55.0138 56.4894C56.0804 56.9694 56.9071 57.6894 57.4938 58.6494C58.1071 59.6094 58.4138 60.8227 58.4138 62.2894V76.1294H54.0138V63.5294ZM77.9738 76.1294C75.0938 76.4227 73.0138 76.5694 71.7338 76.5694C68.9338 76.5694 66.7071 76.0494 65.0538 75.0094C63.4004 73.9694 62.5738 72.0894 62.5738 69.3694V66.0494C62.5738 63.4094 63.4938 61.6361 65.3338 60.7294C66.2138 60.3027 67.2138 60.0894 68.3338 60.0894C69.3204 60.0894 70.2938 60.2227 71.2538 60.4894C72.2138 60.7561 72.9871 61.0494 73.5738 61.3694C73.5738 60.3827 73.1738 59.7161 72.3738 59.3694C71.5738 58.9961 70.5471 58.8094 69.2938 58.8094L69.6538 55.7694C72.2138 55.7694 74.0938 56.1827 75.2938 57.0094C76.5204 57.8094 77.2671 58.7694 77.5338 59.8894C77.8271 61.0094 77.9738 62.4494 77.9738 64.2094V76.1294ZM73.5738 66.0494C73.0938 65.7027 72.4138 65.3827 71.5338 65.0894C70.6804 64.7694 69.8938 64.6094 69.1738 64.6094C68.5338 64.6094 68.0138 64.7694 67.6138 65.0894C67.2138 65.4094 67.0138 65.9161 67.0138 66.6094V68.8094C67.0138 71.2361 68.4404 72.4494 71.2938 72.4494C72.1204 72.4494 72.8804 72.3827 73.5738 72.2494V66.0494ZM96.8644 69.8494C96.8644 71.2094 96.5844 72.3561 96.0244 73.2894C95.4644 74.2227 94.7044 74.9294 93.7444 75.4094C92.891 75.8361 92.0244 76.1427 91.1444 76.3294C90.291 76.5161 89.371 76.6094 88.3844 76.6094C87.3977 76.6094 86.0377 76.5161 84.3044 76.3294L82.1044 76.1294V48.1294H86.5044V56.1294C87.6777 55.8627 88.7444 55.7294 89.7044 55.7294C91.0644 55.7294 92.3177 55.9961 93.4644 56.5294C95.731 57.5694 96.8644 59.4894 96.8644 62.2894V69.8494ZM92.5044 63.5294C92.5044 62.3294 92.171 61.4761 91.5044 60.9694C90.8377 60.4361 90.0244 60.1694 89.0644 60.1694C88.531 60.1694 88.0244 60.2361 87.5444 60.3694C87.0644 60.5027 86.7177 60.6627 86.5044 60.8494V72.2894C86.9577 72.4227 87.5044 72.4894 88.1444 72.4894C89.2644 72.4894 90.2644 72.2894 91.1444 71.8894C92.051 71.4627 92.5044 70.8094 92.5044 69.9294V63.5294ZM116.478 68.7694C116.478 71.0094 115.864 72.8627 114.638 74.3294C113.411 75.7961 111.558 76.5294 109.078 76.5294C106.598 76.5294 104.718 75.7961 103.438 74.3294C102.184 72.8361 101.558 70.9827 101.558 68.7694V63.4894C101.558 60.9561 102.198 59.0227 103.478 57.6894C104.784 56.3294 106.651 55.6494 109.078 55.6494C111.398 55.6494 113.211 56.3561 114.518 57.7694C115.824 59.1561 116.478 61.0627 116.478 63.4894V68.7694ZM112.118 63.4894C112.118 62.0761 111.824 61.1561 111.238 60.7294C110.651 60.3027 109.931 60.0894 109.078 60.0894C106.998 60.0894 105.958 61.2227 105.958 63.4894V69.1694C105.958 70.2361 106.251 71.0094 106.838 71.4894C107.424 71.9694 108.171 72.2094 109.078 72.2094C109.958 72.2094 110.678 71.9561 111.238 71.4494C111.824 70.9427 112.118 70.1827 112.118 69.1694V63.4894ZM121.167 62.2894C121.167 59.4894 122.3 57.5694 124.567 56.5294C125.66 55.9961 126.94 55.7294 128.407 55.7294C129.66 55.7294 130.714 55.8894 131.567 56.2094V48.1294H135.927V76.1294L133.727 76.3294C131.994 76.5161 130.634 76.6094 129.647 76.6094C128.66 76.6094 127.727 76.5161 126.847 76.3294C125.994 76.1427 125.14 75.8361 124.287 75.4094C123.327 74.9294 122.567 74.2227 122.007 73.2894C121.447 72.3561 121.167 71.2094 121.167 69.8494V62.2894ZM131.567 60.8494C130.607 60.3961 129.714 60.1694 128.887 60.1694C127.927 60.1694 127.127 60.4761 126.487 61.0894C125.847 61.7027 125.527 62.6361 125.527 63.8894V70.1294C125.527 70.8227 125.9 71.3961 126.647 71.8494C127.394 72.3027 128.34 72.5294 129.487 72.5294C130.207 72.5294 130.9 72.4361 131.567 72.2494V60.8494ZM154.38 76.1294C151.5 76.4227 149.42 76.5694 148.14 76.5694C145.34 76.5694 143.113 76.0494 141.46 75.0094C139.807 73.9694 138.98 72.0894 138.98 69.3694V66.0494C138.98 63.4094 139.9 61.6361 141.74 60.7294C142.62 60.3027 143.62 60.0894 144.74 60.0894C145.727 60.0894 146.7 60.2227 147.66 60.4894C148.62 60.7561 149.393 61.0494 149.98 61.3694C149.98 60.3827 149.58 59.7161 148.78 59.3694C147.98 58.9961 146.953 58.8094 145.7 58.8094L146.06 55.7694C148.62 55.7694 150.5 56.1827 151.7 57.0094C152.927 57.8094 153.673 58.7694 153.94 59.8894C154.233 61.0094 154.38 62.4494 154.38 64.2094V76.1294ZM149.98 66.0494C149.5 65.7027 148.82 65.3827 147.94 65.0894C147.087 64.7694 146.3 64.6094 145.58 64.6094C144.94 64.6094 144.42 64.7694 144.02 65.0894C143.62 65.4094 143.42 65.9161 143.42 66.6094V68.8094C143.42 71.2361 144.847 72.4494 147.7 72.4494C148.527 72.4494 149.287 72.3827 149.98 72.2494V66.0494ZM170.073 48.1294H175.033L179.633 67.4894L184.113 48.1294H189.193L182.233 76.1294H177.073L170.073 48.1294ZM203.13 76.1294C200.25 76.4227 198.17 76.5694 196.89 76.5694C194.09 76.5694 191.863 76.0494 190.21 75.0094C188.557 73.9694 187.73 72.0894 187.73 69.3694V66.0494C187.73 63.4094 188.65 61.6361 190.49 60.7294C191.37 60.3027 192.37 60.0894 193.49 60.0894C194.477 60.0894 195.45 60.2227 196.41 60.4894C197.37 60.7561 198.143 61.0494 198.73 61.3694C198.73 60.3827 198.33 59.7161 197.53 59.3694C196.73 58.9961 195.703 58.8094 194.45 58.8094L194.81 55.7694C197.37 55.7694 199.25 56.1827 200.45 57.0094C201.677 57.8094 202.423 58.7694 202.69 59.8894C202.983 61.0094 203.13 62.4494 203.13 64.2094V76.1294ZM198.73 66.0494C198.25 65.7027 197.57 65.3827 196.69 65.0894C195.837 64.7694 195.05 64.6094 194.33 64.6094C193.69 64.6094 193.17 64.7694 192.77 65.0894C192.37 65.4094 192.17 65.9161 192.17 66.6094V68.8094C192.17 71.2361 193.597 72.4494 196.45 72.4494C197.277 72.4494 198.037 72.3827 198.73 72.2494V66.0494ZM217.49 63.5294C217.49 62.4627 217.184 61.6094 216.57 60.9694C215.984 60.3027 215.184 59.9694 214.17 59.9694C213.344 59.9694 212.45 60.2094 211.49 60.6894V76.1294H207.13V56.0894H211.01L211.53 56.3294C212.65 55.9561 213.81 55.7694 215.01 55.7694C216.344 55.7694 217.504 56.0094 218.49 56.4894C219.557 56.9694 220.384 57.6894 220.97 58.6494C221.584 59.6094 221.89 60.8227 221.89 62.2894V76.1294H217.49V63.5294ZM227.69 62.2894C227.69 59.4894 228.824 57.5694 231.09 56.5294C232.184 55.9961 233.464 55.7294 234.93 55.7294C236.184 55.7294 237.237 55.8894 238.09 56.2094V48.1294H242.45V76.1294L240.25 76.3294C238.517 76.5161 237.157 76.6094 236.17 76.6094C235.184 76.6094 234.25 76.5161 233.37 76.3294C232.517 76.1427 231.664 75.8361 230.81 75.4094C229.85 74.9294 229.09 74.2227 228.53 73.2894C227.97 72.3561 227.69 71.2094 227.69 69.8494V62.2894ZM238.09 60.8494C237.13 60.3961 236.237 60.1694 235.41 60.1694C234.45 60.1694 233.65 60.4761 233.01 61.0894C232.37 61.7027 232.05 62.6361 232.05 63.8894V70.1294C232.05 70.8227 232.424 71.3961 233.17 71.8494C233.917 72.3027 234.864 72.5294 236.01 72.5294C236.73 72.5294 237.424 72.4361 238.09 72.2494V60.8494ZM246.463 56.0894H250.543L250.863 56.2494C251.957 55.8761 252.983 55.6894 253.943 55.6894C254.61 55.6894 255.583 55.8227 256.863 56.0894L257.663 56.2494L256.623 60.5294C255.877 60.1561 255.143 59.9694 254.423 59.9694C253.437 59.9694 252.597 60.2761 251.903 60.8894C251.21 61.4761 250.863 62.2627 250.863 63.2494V76.1294H246.463V56.0894ZM272.114 76.1294C269.234 76.4227 267.154 76.5694 265.874 76.5694C263.074 76.5694 260.848 76.0494 259.194 75.0094C257.541 73.9694 256.714 72.0894 256.714 69.3694V66.0494C256.714 63.4094 257.634 61.6361 259.474 60.7294C260.354 60.3027 261.354 60.0894 262.474 60.0894C263.461 60.0894 264.434 60.2227 265.394 60.4894C266.354 60.7561 267.128 61.0494 267.714 61.3694C267.714 60.3827 267.314 59.7161 266.514 59.3694C265.714 58.9961 264.688 58.8094 263.434 58.8094L263.794 55.7694C266.354 55.7694 268.234 56.1827 269.434 57.0094C270.661 57.8094 271.408 58.7694 271.674 59.8894C271.968 61.0094 272.114 62.4494 272.114 64.2094V76.1294ZM267.714 66.0494C267.234 65.7027 266.554 65.3827 265.674 65.0894C264.821 64.7694 264.034 64.6094 263.314 64.6094C262.674 64.6094 262.154 64.7694 261.754 65.0894C261.354 65.4094 261.154 65.9161 261.154 66.6094V68.8094C261.154 71.2361 262.581 72.4494 265.434 72.4494C266.261 72.4494 267.021 72.3827 267.714 72.2494V66.0494ZM275.995 56.0894H280.075L280.395 56.2494C281.488 55.8761 282.515 55.6894 283.475 55.6894C284.141 55.6894 285.115 55.8227 286.395 56.0894L287.195 56.2494L286.155 60.5294C285.408 60.1561 284.675 59.9694 283.955 59.9694C282.968 59.9694 282.128 60.2761 281.435 60.8894C280.741 61.4761 280.395 62.2627 280.395 63.2494V76.1294H275.995V56.0894ZM301.67 63.8494C301.67 62.4094 301.35 61.3827 300.71 60.7694C300.097 60.1561 299.31 59.8494 298.35 59.8494C297.843 59.8494 297.35 59.9294 296.87 60.0894C296.39 60.2227 296.003 60.3827 295.71 60.5694V76.1294H291.31V48.1294H295.71V56.2494C296.643 55.9027 297.723 55.7294 298.95 55.7294C300.337 55.7294 301.577 55.9827 302.67 56.4894C303.737 56.9694 304.563 57.6894 305.15 58.6494C305.763 59.6094 306.07 60.8227 306.07 62.2894V76.1294H301.67V63.8494ZM326.517 68.7694C326.517 71.0094 325.903 72.8627 324.677 74.3294C323.45 75.7961 321.597 76.5294 319.117 76.5294C316.637 76.5294 314.757 75.7961 313.477 74.3294C312.223 72.8361 311.597 70.9827 311.597 68.7694V63.4894C311.597 60.9561 312.237 59.0227 313.517 57.6894C314.823 56.3294 316.69 55.6494 319.117 55.6494C321.437 55.6494 323.25 56.3561 324.557 57.7694C325.863 59.1561 326.517 61.0627 326.517 63.4894V68.7694ZM322.157 63.4894C322.157 62.0761 321.863 61.1561 321.277 60.7294C320.69 60.3027 319.97 60.0894 319.117 60.0894C317.037 60.0894 315.997 61.2227 315.997 63.4894V69.1694C315.997 70.2361 316.29 71.0094 316.877 71.4894C317.463 71.9694 318.21 72.2094 319.117 72.2094C319.997 72.2094 320.717 71.9561 321.277 71.4494C321.863 70.9427 322.157 70.1827 322.157 69.1694V63.4894ZM335.926 76.6494C331.873 76.5694 329.846 74.6361 329.846 70.8494V48.1294H334.326V56.0894H338.126L337.166 60.2094H334.326V70.8494C334.326 71.7561 334.579 72.3694 335.086 72.6894C335.593 72.9827 336.313 73.1294 337.246 73.1294L335.926 76.6494ZM344.903 70.1694C344.903 70.9161 345.103 71.5027 345.503 71.9294C345.929 72.3294 346.543 72.5294 347.343 72.5294C348.569 72.5294 350.209 71.9961 352.263 70.9294L353.863 74.7294C352.903 75.3427 351.809 75.8094 350.583 76.1294C349.356 76.4494 348.129 76.6094 346.903 76.6094C344.929 76.6094 343.356 76.1294 342.183 75.1694C341.036 74.1827 340.463 72.7161 340.463 70.7694V62.5694C340.463 60.4094 341.129 58.7294 342.463 57.5294C343.823 56.3294 345.609 55.7294 347.823 55.7294C350.036 55.7294 351.756 56.3294 352.983 57.5294C354.236 58.7027 354.863 60.3427 354.863 62.4494V68.5294L344.903 69.0494V70.1694ZM350.423 62.5294C350.423 61.7294 350.169 61.1161 349.663 60.6894C349.156 60.2627 348.529 60.0494 347.783 60.0494C346.769 60.0494 346.036 60.3161 345.583 60.8494C345.129 61.3827 344.903 61.9694 344.903 62.6094V65.0094L350.423 64.6494V62.5294ZM359.526 48.1294H363.926V76.1294H359.526V48.1294ZM370.229 48.1294H374.629V76.1294H370.229V48.1294Z" fill="#205375"/>
<path d="M3 37.6294C3 37.6294 12.7876 27.7594 25.5 25.1294C33.6125 23.4511 45.2415 28.7823 53.5 28.1294C69.3629 26.8753 70.5 1.62939 89.5 1.12939C108.5 0.629395 106.527 22.3649 127 25.1294C145.297 27.6001 161.552 11.3726 180 10.6294C197.374 9.92943 223.618 37.1508 241 37.6294C275.269 38.573 280.823 -1.55981 315 1.12938C349.6 3.85192 374.5 37.6294 374.5 37.6294" stroke="#205375" stroke-width="2"/>
<path d="M244.118 15.1294H242.765V38.1294H244.118V15.1294Z" fill="#205375"/>
<path d="M244.118 15.8059H237.353L236 16.8206L237.353 17.8353H244.118V15.8059Z" fill="#205375"/>
<path d="M242.765 20.5412H249.529L250.882 19.5265L249.529 18.5117H242.765V20.5412Z" fill="#205375"/>
<path d="M49.2941 11.1294H50.3529V29.1294H49.2941V11.1294Z" fill="#205375"/>
<path d="M49.2941 11.6588H54.5882L55.6471 12.4529L54.5882 13.247H49.2941V11.6588Z" fill="#205375"/>
<path d="M50.3529 15.3647H45.0588L44 14.5706L45.0588 13.7765H50.3529V15.3647Z" fill="#205375"/>
</svg>
