<svg width="159" height="79" viewBox="0 0 159 79" fill="none" xmlns="http://www.w3.org/2000/svg">
<path d="M1.104 34V32.992L1.872 32.752C2.544 32.496 2.992 32.16 3.216 31.744C3.472 31.328 3.6 30.768 3.6 30.064C3.632 28.24 3.648 26.416 3.648 24.592C3.648 22.736 3.648 20.88 3.648 19.024V17.296C3.648 15.44 3.632 13.6 3.6 11.776C3.6 9.91999 3.6 8.06399 3.6 6.20799C3.6 5.43999 3.488 4.86399 3.264 4.47999C3.04 4.06399 2.576 3.74399 1.872 3.51999L1.104 3.27999V2.27199H14.64C18.48 2.27199 21.264 2.99199 22.992 4.43199C24.72 5.83999 25.584 7.63199 25.584 9.80799C25.584 11.472 24.976 12.976 23.76 14.32C22.544 15.632 20.416 16.576 17.376 17.152C20.896 17.536 23.44 18.448 25.008 19.888C26.576 21.328 27.36 23.088 27.36 25.168C27.36 26.192 27.136 27.232 26.688 28.288C26.24 29.312 25.472 30.256 24.384 31.12C23.328 31.984 21.888 32.688 20.064 33.232C18.24 33.744 15.936 34 13.152 34H1.104ZM10.464 16.816H12.72C14.896 16.816 16.464 16.336 17.424 15.376C18.416 14.384 18.912 12.704 18.912 10.336C18.912 7.87199 18.464 6.14399 17.568 5.15199C16.672 4.15999 15.264 3.66399 13.344 3.66399H10.464V16.816ZM10.464 32.608H13.104C15.504 32.608 17.296 32.016 18.48 30.832C19.664 29.648 20.256 27.744 20.256 25.12C20.256 22.592 19.68 20.816 18.528 19.792C17.408 18.736 15.552 18.208 12.96 18.208H10.464V32.608ZM44.3456 34.816C42.3936 34.816 40.5216 34.464 38.7296 33.76C36.9376 33.056 35.3216 32.016 33.8816 30.64C32.4736 29.232 31.3536 27.488 30.5216 25.408C29.6896 23.328 29.2736 20.896 29.2736 18.112C29.2736 15.392 29.6896 12.992 30.5216 10.912C31.3536 8.83199 32.4736 7.08799 33.8816 5.67999C35.3216 4.27199 36.9376 3.21599 38.7296 2.51199C40.5536 1.77599 42.4256 1.40799 44.3456 1.40799C46.2656 1.40799 48.1216 1.75999 49.9136 2.46399C51.7376 3.16799 53.3536 4.22399 54.7616 5.63199C56.1696 7.00799 57.2896 8.73599 58.1216 10.816C58.9536 12.896 59.3696 15.328 59.3696 18.112C59.3696 20.832 58.9536 23.232 58.1216 25.312C57.2896 27.392 56.1696 29.136 54.7616 30.544C53.3536 31.952 51.7536 33.024 49.9616 33.76C48.1696 34.464 46.2976 34.816 44.3456 34.816ZM44.3456 33.376C46.1696 33.376 47.6416 32.912 48.7616 31.984C49.8816 31.024 50.6976 29.424 51.2096 27.184C51.7216 24.944 51.9776 21.92 51.9776 18.112C51.9776 14.304 51.7216 11.296 51.2096 9.08799C50.6976 6.84799 49.8816 5.26399 48.7616 4.33599C47.6416 3.37599 46.1696 2.89599 44.3456 2.89599C42.5536 2.89599 41.0816 3.37599 39.9296 4.33599C38.8096 5.26399 37.9936 6.84799 37.4816 9.08799C36.9696 11.296 36.7136 14.304 36.7136 18.112C36.7136 21.92 36.9696 24.944 37.4816 27.184C37.9936 29.424 38.8096 31.024 39.9296 31.984C41.0816 32.912 42.5536 33.376 44.3456 33.376ZM60.6353 34V32.992L61.6433 32.704C62.2833 32.512 62.6993 32.224 62.8913 31.84C63.0833 31.456 63.1793 30.944 63.1793 30.304V6.01599C63.1793 5.34399 63.0673 4.83199 62.8433 4.47999C62.6513 4.09599 62.2353 3.80799 61.5953 3.61599L60.6353 3.27999V2.27199H72.2993V3.27999L71.2913 3.61599C70.6833 3.77599 70.2833 4.04799 70.0913 4.43199C69.8993 4.81599 69.8033 5.34399 69.8033 6.01599V30.352C69.8033 30.992 69.9153 31.504 70.1393 31.888C70.3633 32.24 70.7793 32.512 71.3873 32.704L72.2993 32.992V34H60.6353ZM78.1073 34V32.992L78.6833 32.848C79.2913 32.688 79.6113 32.384 79.6433 31.936C79.6753 31.488 79.4673 30.976 79.0193 30.4L69.8513 17.68L81.5633 5.77599C82.0433 5.29599 82.2993 4.86399 82.3313 4.47999C82.3953 4.06399 82.1073 3.74399 81.4673 3.51999L80.6513 3.27999V2.27199H88.2353V3.27999L86.9873 3.61599C86.2513 3.83999 85.6593 4.11199 85.2113 4.43199C84.7633 4.71999 84.2513 5.16799 83.6753 5.77599L75.1313 14.464L86.1233 30.16C86.6353 30.864 87.1153 31.424 87.5633 31.84C88.0433 32.256 88.6833 32.576 89.4833 32.8L90.1553 32.992V34H78.1073Z" fill="#333333"/>
<path d="M1.104 75V73.992L2.064 73.752C2.704 73.56 3.12 73.272 3.312 72.888C3.504 72.504 3.6 71.976 3.6 71.304C3.632 69.48 3.648 67.64 3.648 65.784C3.648 63.896 3.648 62.008 3.648 60.12V58.152C3.648 56.296 3.648 54.44 3.648 52.584C3.648 50.728 3.632 48.872 3.6 47.016C3.6 46.344 3.488 45.832 3.264 45.48C3.072 45.096 2.656 44.792 2.016 44.568L1.104 44.28V43.272H12.672C17.344 43.272 20.736 44.152 22.848 45.912C24.992 47.64 26.064 49.928 26.064 52.776C26.064 54.568 25.616 56.232 24.72 57.768C23.856 59.272 22.416 60.472 20.4 61.368C18.384 62.264 15.664 62.712 12.24 62.712H10.512C10.512 64.056 10.512 65.448 10.512 66.888C10.512 68.296 10.528 69.736 10.56 71.208C10.56 72.52 11.152 73.32 12.336 73.608L13.776 73.992V75H1.104ZM10.512 61.32H12.528C14.128 61.32 15.424 61.08 16.416 60.6C17.44 60.088 18.192 59.224 18.672 58.008C19.184 56.792 19.44 55.112 19.44 52.968C19.44 50.824 19.168 49.16 18.624 47.976C18.112 46.76 17.328 45.912 16.272 45.432C15.216 44.92 13.904 44.664 12.336 44.664H10.56C10.528 46.872 10.512 49.112 10.512 51.384C10.512 53.624 10.512 55.88 10.512 58.152V61.32ZM42.3791 75.816C39.9791 75.816 37.8511 75.384 35.9951 74.52C34.1711 73.656 32.7311 72.296 31.6751 70.44C30.6511 68.552 30.1391 66.072 30.1391 63V57.816C30.1391 56.024 30.1391 54.216 30.1391 52.392C30.1391 50.568 30.1231 48.728 30.0911 46.872C30.0911 45.624 29.4991 44.84 28.3151 44.52L27.2591 44.28V43.272H40.2191V44.28L38.8751 44.568C37.6591 44.856 37.0511 45.656 37.0511 46.968C37.0191 48.76 37.0031 50.568 37.0031 52.392C37.0031 54.184 37.0031 55.992 37.0031 57.816V63.912C37.0031 67.016 37.6271 69.256 38.8751 70.632C40.1551 72.008 41.9631 72.696 44.2991 72.696C46.7631 72.696 48.6831 71.96 50.0591 70.488C51.4671 68.984 52.1711 66.76 52.1711 63.816V47.112C52.1711 46.472 52.0431 45.912 51.7871 45.432C51.5311 44.952 51.0831 44.648 50.4431 44.52L49.2911 44.28V43.272H56.6831V44.28L55.3391 44.568C54.7311 44.696 54.3151 44.984 54.0911 45.432C53.8671 45.88 53.7551 46.424 53.7551 47.064V63.528C53.7551 67.496 52.7151 70.536 50.6351 72.648C48.5551 74.76 45.8031 75.816 42.3791 75.816ZM68.0936 75.816C66.3336 75.816 64.5416 75.592 62.7176 75.144C60.9256 74.728 59.4216 74.168 58.2056 73.464L58.4936 66.792H59.8856L61.3736 70.104C61.8216 71.032 62.2856 71.8 62.7656 72.408C63.2456 73.016 63.8856 73.48 64.6856 73.8C65.2296 74.024 65.7416 74.184 66.2216 74.28C66.7336 74.344 67.2936 74.376 67.9016 74.376C69.8536 74.376 71.3896 73.88 72.5096 72.888C73.6616 71.864 74.2376 70.52 74.2376 68.856C74.2376 67.352 73.8376 66.168 73.0376 65.304C72.2696 64.44 71.0216 63.608 69.2936 62.808L67.3256 61.944C64.6376 60.76 62.5096 59.384 60.9416 57.816C59.4056 56.248 58.6376 54.168 58.6376 51.576C58.6376 49.656 59.1176 48.024 60.0776 46.68C61.0696 45.304 62.4296 44.248 64.1576 43.512C65.8856 42.776 67.9016 42.408 70.2056 42.408C71.9016 42.408 73.4856 42.632 74.9576 43.08C76.4616 43.528 77.7736 44.136 78.8936 44.904L78.5576 50.856H77.1656L75.3896 47.256C74.8776 46.2 74.3816 45.448 73.9016 45C73.4536 44.52 72.8936 44.216 72.2216 44.088C71.8376 44.024 71.5016 43.976 71.2136 43.944C70.9576 43.912 70.6056 43.896 70.1576 43.896C68.5896 43.896 67.2296 44.36 66.0776 45.288C64.9576 46.184 64.3976 47.432 64.3976 49.032C64.3976 50.568 64.8296 51.816 65.6936 52.776C66.5576 53.736 67.8056 54.584 69.4376 55.32L71.5976 56.232C74.7016 57.576 76.9256 59.016 78.2696 60.552C79.6136 62.056 80.2856 63.992 80.2856 66.36C80.2856 69.176 79.2136 71.464 77.0696 73.224C74.9576 74.952 71.9656 75.816 68.0936 75.816ZM92.6093 75.816C90.8493 75.816 89.0573 75.592 87.2333 75.144C85.4413 74.728 83.9373 74.168 82.7213 73.464L83.0093 66.792H84.4013L85.8893 70.104C86.3373 71.032 86.8013 71.8 87.2812 72.408C87.7613 73.016 88.4013 73.48 89.2013 73.8C89.7453 74.024 90.2573 74.184 90.7373 74.28C91.2493 74.344 91.8093 74.376 92.4173 74.376C94.3693 74.376 95.9053 73.88 97.0253 72.888C98.1773 71.864 98.7533 70.52 98.7533 68.856C98.7533 67.352 98.3533 66.168 97.5533 65.304C96.7853 64.44 95.5373 63.608 93.8093 62.808L91.8413 61.944C89.1533 60.76 87.0253 59.384 85.4573 57.816C83.9213 56.248 83.1533 54.168 83.1533 51.576C83.1533 49.656 83.6333 48.024 84.5933 46.68C85.5853 45.304 86.9453 44.248 88.6733 43.512C90.4013 42.776 92.4173 42.408 94.7213 42.408C96.4173 42.408 98.0013 42.632 99.4733 43.08C100.977 43.528 102.289 44.136 103.409 44.904L103.073 50.856H101.681L99.9053 47.256C99.3933 46.2 98.8973 45.448 98.4173 45C97.9693 44.52 97.4093 44.216 96.7373 44.088C96.3533 44.024 96.0173 43.976 95.7293 43.944C95.4733 43.912 95.1213 43.896 94.6733 43.896C93.1053 43.896 91.7453 44.36 90.5933 45.288C89.4733 46.184 88.9133 47.432 88.9133 49.032C88.9133 50.568 89.3453 51.816 90.2093 52.776C91.0733 53.736 92.3213 54.584 93.9532 55.32L96.1133 56.232C99.2173 57.576 101.441 59.016 102.785 60.552C104.129 62.056 104.801 63.992 104.801 66.36C104.801 69.176 103.729 71.464 101.585 73.224C99.4733 74.952 96.4813 75.816 92.6093 75.816ZM107.042 75V73.992L108.002 73.656C108.578 73.496 108.978 73.224 109.202 72.84C109.426 72.424 109.554 71.864 109.586 71.16V47.016C109.554 46.344 109.442 45.832 109.25 45.48C109.058 45.096 108.658 44.808 108.05 44.616L107.042 44.28V43.272H129.89L130.226 50.952H128.882L126.962 46.632C126.706 46.024 126.418 45.56 126.098 45.24C125.778 44.888 125.298 44.712 124.658 44.712H116.498C116.466 46.696 116.45 48.744 116.45 50.856C116.45 52.936 116.45 55.288 116.45 57.912H121.202C121.842 57.912 122.322 57.752 122.642 57.432C122.994 57.08 123.314 56.616 123.602 56.04L124.418 54.216H125.474V63.096H124.418L123.554 61.272C123.298 60.696 123.01 60.232 122.69 59.88C122.37 59.528 121.89 59.352 121.25 59.352H116.45C116.45 61.656 116.45 63.64 116.45 65.304C116.45 66.968 116.45 68.456 116.45 69.768C116.482 71.048 116.498 72.312 116.498 73.56H125.714C126.354 73.56 126.85 73.4 127.202 73.08C127.554 72.728 127.842 72.248 128.066 71.64L129.842 67.32H131.186L130.85 75H107.042ZM133.62 75V73.992L134.58 73.704C135.252 73.48 135.684 73.192 135.876 72.84C136.068 72.456 136.164 71.928 136.164 71.256V46.968C136.164 46.328 136.068 45.832 135.876 45.48C135.684 45.096 135.268 44.792 134.628 44.568L133.62 44.28V43.272H145.524V44.28L144.612 44.568C144.004 44.792 143.588 45.096 143.364 45.48C143.172 45.864 143.076 46.392 143.076 47.064V73.56H150.132C151.22 73.56 152.036 73.288 152.58 72.744C153.124 72.2 153.636 71.416 154.116 70.392L155.892 66.408H157.236L156.756 75H133.62Z" fill="#333333"/>
<path fill-rule="evenodd" clip-rule="evenodd" d="M104.764 14.764C106.333 13.1947 106.333 10.6502 104.764 9.08086C104.34 8.65648 103.844 8.34686 103.316 8.152C102.881 7.99175 102.666 7.38999 102.994 7.06246L108.742 1.31387C109.161 0.89538 109.839 0.895372 110.258 1.31387L116.854 7.91004C116.907 6.95731 117.297 6.01991 118.025 5.29209C119.594 3.72277 122.139 3.72272 123.708 5.29209C125.277 6.86145 125.277 9.40594 123.708 10.9753C122.98 11.7031 122.043 12.0933 121.09 12.1461L127.686 18.7423C128.105 19.1607 128.105 19.8393 127.686 20.2578L122.004 25.94C121.692 26.2524 121.131 26.0745 120.955 25.6691C120.76 25.2176 120.478 24.7945 120.109 24.4254C118.539 22.856 115.995 22.8561 114.425 24.4254C112.856 25.9948 112.856 28.5392 114.425 30.1086C114.795 30.4777 115.218 30.76 115.669 30.9554C116.074 31.1309 116.252 31.6915 115.94 32.0039L110.258 37.6861C109.839 38.1046 109.161 38.1046 108.742 37.6861L102.994 31.9376C102.666 31.61 102.881 31.0083 103.316 30.848C103.844 30.6531 104.34 30.3435 104.764 29.9191C106.333 28.3498 106.333 25.8053 104.764 24.236C103.195 22.6666 100.65 22.6666 99.0809 24.236C98.6565 24.6604 98.3469 25.156 98.152 25.6845C97.9917 26.119 97.39 26.3339 97.0624 26.0063L91.3139 20.2578C90.8954 19.8393 90.8954 19.1607 91.3139 18.7423L97.0625 12.9937C97.39 12.6662 97.9917 12.881 98.152 13.3156C98.3469 13.844 98.6565 14.3397 99.0809 14.764C100.65 16.3334 103.195 16.3334 104.764 14.764ZM107.44 21.88C107.808 22.072 108.256 22.168 108.784 22.168C109.36 22.168 109.82 22.064 110.164 21.856C110.508 21.64 110.796 21.408 111.028 21.16L111.808 22.012L114.112 22V21.76L113.872 21.664C113.744 21.608 113.628 21.548 113.524 21.484C113.42 21.412 113.32 21.324 113.224 21.22L112.096 20.008C112.328 19.68 112.532 19.32 112.708 18.928C112.884 18.528 113.036 18.108 113.164 17.668C113.228 17.412 113.388 17.24 113.644 17.152L113.776 17.104V16.876H112.312V17.104L112.408 17.14C112.704 17.228 112.82 17.42 112.756 17.716C112.66 18.108 112.532 18.484 112.372 18.844C112.212 19.196 112.04 19.508 111.856 19.78C111.648 19.548 111.44 19.324 111.232 19.108C111.032 18.892 110.82 18.664 110.596 18.424C110.42 18.224 110.252 18.036 110.092 17.86C109.932 17.676 109.78 17.504 109.636 17.344C110.228 17.088 110.68 16.812 110.992 16.516C111.304 16.212 111.46 15.856 111.46 15.448C111.46 14.984 111.284 14.612 110.932 14.332C110.588 14.044 110.1 13.9 109.468 13.9C108.82 13.9 108.296 14.072 107.896 14.416C107.496 14.752 107.296 15.2 107.296 15.76C107.296 16.184 107.384 16.556 107.56 16.876C107.744 17.188 107.94 17.484 108.148 17.764C106.916 18.3 106.3 19.056 106.3 20.032C106.3 20.424 106.396 20.78 106.588 21.1C106.788 21.42 107.072 21.68 107.44 21.88ZM110.152 16.3C110 16.58 109.764 16.86 109.444 17.14C109.348 17.02 109.264 16.92 109.192 16.84C109.12 16.752 109.06 16.676 109.012 16.612C108.828 16.356 108.7 16.128 108.628 15.928C108.564 15.728 108.532 15.536 108.532 15.352C108.532 15.048 108.62 14.8 108.796 14.608C108.98 14.416 109.204 14.32 109.468 14.32C109.748 14.32 109.968 14.416 110.128 14.608C110.296 14.8 110.38 15.052 110.38 15.364C110.38 15.708 110.304 16.02 110.152 16.3ZM110.2 21.232C109.968 21.312 109.712 21.352 109.432 21.352C108.92 21.352 108.5 21.18 108.172 20.836C107.852 20.484 107.692 20.048 107.692 19.528C107.692 19.248 107.74 18.976 107.836 18.712C107.94 18.448 108.116 18.216 108.364 18.016C108.564 18.264 108.768 18.512 108.976 18.76C109.184 19.008 109.4 19.272 109.624 19.552C110.008 20 110.4 20.448 110.8 20.896C110.632 21.032 110.432 21.144 110.2 21.232Z" fill="#333333"/>
</svg>
