<svg width="194" height="131" viewBox="0 0 194 131" fill="none" xmlns="http://www.w3.org/2000/svg">
<path d="M48.1721 124C40.5553 124 33.1803 122.965 26.0471 120.894C19.0348 118.702 13.3525 115.353 9 110.847L20.568 91.4835L28.042 95.8677C28.042 95.8677 34.0871 99.4603 37.4723 100.8C40.8576 102.14 44.3637 102.87 47.9908 102.992C50.5297 102.992 52.7664 102.809 54.7008 102.444C56.7562 102.079 58.5092 101.47 59.96 100.617C61.4109 99.7648 62.499 98.6079 63.2244 97.1464C64.0707 95.5632 64.4939 93.6756 64.4939 91.4835C64.4939 90.3874 64.3125 89.2913 63.9498 88.1953C63.708 86.9774 63.2244 85.8205 62.499 84.7244C61.7736 83.5065 60.625 82.2887 59.0533 81.0709C57.6025 79.853 55.7285 78.5134 53.4314 77.052C51.1342 75.5905 48.2326 74.0682 44.7264 72.485C36.9887 68.7097 30.8227 65.117 26.2285 61.7071C21.7551 58.2971 18.4908 54.5827 16.4355 50.5638C14.501 46.4231 13.5338 41.4908 13.5338 35.7669C13.5338 30.1648 15.166 25.1108 18.4303 20.6047C21.8156 16.0987 26.0661 13.1683 31.7484 10.489C37.398 8.66221 45.2082 8 45.2082 8H64.3352H83.1732C83.1732 8 89.8832 8 96.5932 8C96.5932 8 99.3619 32.8209 99.0472 30C98.7575 27.4027 96.0389 26.8157 92 26.8157C79.695 26.8157 54.5278 26.8157 52.3432 26.8157C50.2879 26.8157 48.4139 27.0593 46.7213 27.5464C45.0287 27.9118 43.5779 28.5207 42.3689 29.3732C41.1598 30.1039 40.1926 30.9564 39.4672 31.9307C38.8627 32.905 38.5605 33.9401 38.5605 35.0362C38.5605 36.1323 38.6814 37.1674 38.9232 38.1417C39.165 38.9942 39.6486 39.9076 40.374 40.8819C41.0994 41.8562 42.1875 42.8913 43.6383 43.9874C45.21 45.0834 47.2049 46.3622 49.623 47.8236C52.1619 49.1632 55.3053 50.7464 59.0533 52.5732C64.8566 55.496 69.7531 58.2971 73.7428 60.9764C77.7326 63.6556 80.876 66.4567 83.1732 69.3795C85.5912 72.1806 87.2838 75.2861 88.251 78.6961C89.3391 82.106 89.8832 86.0031 89.8832 90.3874C89.8832 96.1113 88.4324 101.531 85.5307 106.646C82.6291 111.761 78.0953 115.962 71.9293 119.25C65.7633 122.417 57.8443 124 48.1721 124Z" fill="#83F3DF"/>
<path d="M109.288 121.808L96.5932 8C96.5932 8 116 6 117 15C118 24 122.889 75.7732 122.889 75.7732L135.04 17.3165H150.274L162.424 75.2252L165.326 8H186L173.668 121.808H155.533L141.75 54.4L127.786 121.808H109.288Z" fill="#83F3DF"/>
</svg>
