<svg width="100" height="100" viewBox="0 0 100 100" fill="none" xmlns="http://www.w3.org/2000/svg">
<g clip-path="url(#clip0_53_405)">
<path fill-rule="evenodd" clip-rule="evenodd" d="M50 100C77.6142 100 100 77.6142 100 50C100 42.1817 98.2056 34.7826 95.0061 28.192C93.3336 36.7921 91.3908 46.4025 90.3736 50.62C88.7736 57.42 86.9336 63.88 84.8536 70H79.0336C77.2736 65.68 75.5536 61.24 73.8736 56.68C72.1936 52.12 70.5136 47.16 68.8336 41.8C67.1536 47.16 65.4536 52.12 63.7336 56.68C62.0136 61.24 60.2936 65.68 58.5736 70H52.7536C50.6336 63.88 48.7536 57.42 47.1136 50.62C45.5136 43.82 44.0136 36.42 42.6136 28.42H48.7336C49.2936 31.54 49.8736 34.66 50.4736 37.78C51.0736 40.9 51.6936 43.94 52.3336 46.9C52.9736 49.82 53.6136 52.62 54.2536 55.3C54.8936 57.98 55.5536 60.46 56.2336 62.74C57.8336 58.54 59.5336 53.94 61.3336 48.94C63.1336 43.9 64.8136 38.7 66.3736 33.34H71.4136C72.9736 38.7 74.6736 43.9 76.5136 48.94C78.3536 53.94 80.0736 58.54 81.6736 62.74C82.3136 60.5 82.9536 58.04 83.5936 55.36C84.2336 52.68 84.8536 49.88 85.4536 46.96C86.0936 44 86.7136 40.96 87.3136 37.84C87.9136 34.68 88.4936 31.54 89.0536 28.42L90.4728 20.6349C81.3842 8.13002 66.6415 0 50 0C22.3858 0 0 22.3858 0 50C0 52.7497 0.221961 55.4476 0.648942 58.0766C2.39198 58.9294 15.1082 64.2832 16.92 64.9C18.8 65.54 21.1 65.86 23.82 65.86C29.9 65.86 32.94 63.78 32.94 59.62C32.94 58.34 32.66 57.26 32.1 56.38C31.58 55.46 30.86 54.68 29.94 54.04C29.02 53.36 27.96 52.78 26.76 52.3C25.6 51.82 24.36 51.34 23.04 50.86C21.52 50.34 20.08 49.76 18.72 49.12C17.36 48.44 16.18 47.66 15.18 46.78C14.18 45.86 13.38 44.78 12.78 43.54C12.22 42.3 11.94 40.8 11.94 39.04C11.94 35.4 13.18 32.56 15.66 30.52C18.14 28.48 21.56 27.46 25.92 27.46C28.44 27.46 30.72 27.74 32.76 28.3C34.84 28.82 36.36 29.4 37.32 30.04L35.46 34.78C34.62 34.26 33.36 33.76 31.68 33.28C30.04 32.76 28.12 32.5 25.92 32.5C24.8 32.5 23.76 32.62 22.8 32.86C21.84 33.1 21 33.46 20.28 33.94C19.56 34.42 18.98 35.04 18.54 35.8C18.14 36.52 17.94 37.38 17.94 38.38C17.94 39.5 18.16 40.44 18.6 41.2C19.04 41.96 19.66 42.64 20.46 43.24C21.26 43.8 22.18 44.32 23.22 44.8C24.3 45.28 25.48 45.76 26.76 46.24C28.56 46.96 30.2 47.68 31.68 48.4C33.2 49.12 34.5 49.98 35.58 50.98C36.7 51.98 37.56 53.18 38.16 54.58C38.76 55.94 39.06 57.6 39.06 59.56C39.06 63.2 37.72 66 35.04 67.96C32.4 69.92 28.66 70.9 23.82 70.9C22.18 70.9 20.66 70.78 19.26 70.54C17.9 70.34 16.68 70.1 15.6 69.82C14.52 69.5 13.58 69.18 12.78 68.86C12.1734 68.5726 4.99097 65.1631 1.89359 63.6769C7.84266 84.6425 27.1279 100 50 100Z" fill="#83F3DF"/>
</g>
<defs>
<clipPath id="clip0_53_405">
<rect width="100" height="100" fill="white"/>
</clipPath>
</defs>
</svg>
